<svg xmlns="http://www.w3.org/2000/svg" width="24" height="24" viewBox="0 0 24 24" fill="none" stroke="currentColor" stroke-width="2" stroke-linecap="round" stroke-linejoin="round" class="lucide lucide-building-2"><path d="M6 22V2a1 1 0 0 1 1-1h10a1 1 0 0 1 1 1v20"></path><path d="M6 12H4a1 1 0 0 0-1 1v8a1 1 0 0 0 1 1h16a1 1 0 0 0 1-1v-8a1 1 0 0 0-1-1h-2"></path><path d="M12 7v.01"></path><path d="M12 11v.01"></path><path d="M12 15v.01"></path><path d="M12 19v.01"></path><path d="M16 7v.01"></path><path d="M16 11v.01"></path><path d="M16 15v.01"></path><path d="M16 19v.01"></path><path d="M8 7v.01"></path><path d="M8 11v.01"></path><path d="M8 15v.01"></path><path d="M8 19v.01"></path></svg>